<svg xmlns="http://www.w3.org/2000/svg" xmlns:xlink="http://www.w3.org/1999/xlink" viewBox="0 0 330 330" width="50px" height="50px">
    <g fill="#222222" fill-rule="nonzero" stroke="none" stroke-width="1" stroke-linecap="butt" stroke-linejoin="miter" stroke-miterlimit="10" stroke-dasharray="" stroke-dashoffset="0" font-family="none" font-weight="none" font-size="none" text-anchor="none" style="mix-blend-mode: normal">
        <g id="XMLID_7_">
            <path id="XMLID_8_" d="M305,0H105C69.158,0,40,29.159,40,65v15H25c-8.284,0-15,6.716-15,15s6.716,15,15,15h15v40H25
                c-8.284,0-15,6.716-15,15s6.716,15,15,15h15v40H25c-8.284,0-15,6.716-15,15s6.716,15,15,15h15v15c0,35.841,29.158,65,65,65h200
                c8.284,0,15-6.716,15-15V15C320,6.716,313.284,0,305,0z M254,181.251c0,13.923-11.328,25.25-25.252,25.25
                c-8.593,0-16.193-4.318-20.756-10.895c-7.385,6.762-17.215,10.895-27.992,10.895c-22.883,0-41.5-18.618-41.5-41.503
                c0-22.883,18.617-41.499,41.5-41.499s41.498,18.616,41.498,41.499v16.253c0,3.997,3.252,7.25,7.25,7.25
                c3.998,0,7.252-3.253,7.252-7.25v-16.253C236,134.121,210.879,109,180,109s-56,25.121-56,55.998C124,195.877,149.121,221,180,221
                c4.971,0,9,4.029,9,9s-4.029,9-9,9c-40.804,0-74-33.197-74-74.002C106,124.195,139.196,91,180,91s74,33.195,74,73.998V181.251z">
            </path>
            <path id="XMLID_11_" d="M180,141.499c-12.958,0-23.5,10.542-23.5,23.499c0,12.96,10.542,23.503,23.5,23.503
                c12.957,0,23.498-10.544,23.498-23.503C203.498,152.04,192.957,141.499,180,141.499z">
            </path>
        </g>
    </g>
</svg>